# xmcd CD database file
# Copyright (C) 1993-1996 Ti Kan
#
# Track frame offsets:
#  150
#  13430
#  39292
#  57558
#  70152
#  81328
#  92821
#  102982
#  115660
#  130525
#  145952
#  156660
#  167571
#  179679
#  198072
#
# Disc length: 2822 seconds
#
# Revision: 1
# Processed by: cddbd v1.5.2PL0 Copyright (c) Steve Scherf et al.
# Submitted via: Advanced CD Ripper Pro 2.0
#
DISCID=d20b040f
DTITLE=Unknown Artist - Unknown Album
DYEAR=2003
DGENRE=
TTITLE0=O demitido
TTITLE1=Talentos Catarinenses
TTITLE2=Salão do Paulo Kurt
TTITLE3=Achei
TTITLE4=Se empenou...vôa
TTITLE5=Não duvide do velhinho
TTITLE6=O Otário e o gigolô
TTITLE7=Só até as dez
TTITLE8=Já me cansei
TTITLE9=No orkut dela
TTITLE10=O inferno é aqui na terra
TTITLE11=Uma cerveja e um amargo
TTITLE12=Família ingrata
TTITLE13=História de Santa Luzia
TTITLE14=Parabéns e felicidade
EXTD=
EXTT0=
EXTT1=
EXTT2=
EXTT3=
EXTT4=
EXTT5=
EXTT6=
EXTT7=
EXTT8=
EXTT9=
EXTT10=
EXTT11=
EXTT12=
EXTT13=
EXTT14=
PLAYORDER=
